<svg xmlns="http://www.w3.org/2000/svg" version="1.1"
     xmlns:xlink="http://www.w3.org/1999/xlink" xmlns:svgjs="http://svgjs.dev/svgjs" width="1500" height="1500"
     viewBox="0 0 1500 1500"
     xmlns:xsi="http://www.w3.org/2001/XMLSchema-instance" xsi:schemaLocation="http://svgjs.dev/svgjs ">
  <rect width="1500" height="1500" fill="#ffffff"></rect>
  <g transform="matrix(0.6666666666666666,0,0,0.6666666666666666,249.39393939393938,576.7829047939554)">
    <svg viewBox="0 0 396 137" data-background-color="#ffffff" preserveAspectRatio="xMidYMid meet" height="518"
         width="1500" xmlns="http://www.w3.org/2000/svg" xmlns:xlink="http://www.w3.org/1999/xlink">
      <g id="tight-bounds" transform="matrix(1,0,0,1,0.2400000000000091,0.21836499004280086)">
        <svg viewBox="0 0 395.52 136.56327001991437" height="136.56327001991437" width="395.52">
          <g>
            <svg viewBox="0 0 661.4125916367595 228.36940318128578" height="136.56327001991437" width="395.52">
              <g transform="matrix(1,0,0,1,265.8925916367596,43.80521481332133)">
                <svg viewBox="0 0 395.52 140.75897355464312" height="140.75897355464312" width="395.52">
                  <g id="textblocktransform">
                    <svg viewBox="0 0 395.52 140.75897355464312" height="140.75897355464312" width="395.52"
                         id="textblock">
                      <g>
                        <svg viewBox="0 0 395.52 79.47268772656653" height="79.47268772656653" width="395.52">
                          <g transform="matrix(1,0,0,1,0,0)">
                            <svg width="395.52" viewBox="3.35 -38.15 193.48000000000002 38.8" height="79.47268772656653"
                                 data-palette-color="#fe7833">
                              <g class="wordmark-text-0" data-fill-palette-color="primary" id="text-0">
                                <path
                                  d="M3.35-36.45L9.35-36.45 9.35-12.2Q9.35-8.1 11.48-5.63 13.6-3.15 17.9-3.15L17.9-3.15Q22.35-3.15 24.68-5.8 27-8.45 27-12.75L27-12.75 27-36.45 31.25-36.45 31.25-13.1Q31.25-8.7 29.6-5.65 27.95-2.6 24.9-1 21.85 0.6 17.6 0.6L17.6 0.6Q11.2 0.6 7.65-2.75 4.1-6.1 4.1-12.55L4.1-12.55 4.1-33.2 3.35-36.45ZM37.7-24.7L42.65-25.25Q43-24.45 43.22-23.58 43.45-22.7 43.55-21.85L43.55-21.85Q45-23.2 46.9-24.33 48.8-25.45 50.9-25.45L50.9-25.45Q53.2-25.45 54.9-24.5 56.6-23.55 57.6-21.4L57.6-21.4Q59.15-22.95 61.17-24.2 63.2-25.45 65.45-25.45L65.45-25.45Q68.2-25.45 69.82-24.3 71.45-23.15 72.17-21.2 72.9-19.25 72.9-16.65L72.9-16.65 72.9 0 68.35 0 68.35-15.55Q68.35-17 68.12-18.38 67.9-19.75 67.05-20.65 66.2-21.55 64.4-21.55L64.4-21.55Q62.75-21.55 61.1-20.48 59.45-19.4 58.35-18.3L58.35-18.3 58.35 0 53.8 0 53.8-15.55Q53.8-17 53.57-18.38 53.35-19.75 52.52-20.65 51.7-21.55 49.85-21.55L49.85-21.55Q48.85-21.55 47.72-21.05 46.6-20.55 45.6-19.8 44.6-19.05 43.85-18.35L43.85-18.35 43.85 0 39.3 0 39.3-18Q39.3-19 39.12-20.23 38.95-21.45 38.6-22.65 38.25-23.85 37.7-24.7L37.7-24.7ZM92.3-25.35L92.3-25.35Q94.85-25.35 96.8-24.25 98.75-23.15 100.02-21.28 101.3-19.4 101.95-17.15 102.6-14.9 102.6-12.55L102.6-12.55Q102.6-9.15 101.37-6.15 100.15-3.15 97.67-1.25 95.2 0.65 91.45 0.65L91.45 0.65Q89.35 0.65 87.42-0.15 85.5-0.95 84.15-2.6L84.15-2.6 83.2 0.05 80.6 0.05Q80.65-0.8 80.7-1.68 80.75-2.55 80.75-3.35L80.75-3.35 80.75-35.3 80.05-38.15 85.3-38.15 85.3-24.7Q85.3-24.05 85.27-23.55 85.25-23.05 85.2-22.6L85.2-22.6Q86.8-24.05 88.47-24.7 90.15-25.35 92.3-25.35ZM91-21.6L91-21.6Q89.4-21.6 87.9-20.83 86.4-20.05 85.3-18.9L85.3-18.9 85.3-10Q85.3-8 85.87-6.33 86.45-4.65 87.77-3.65 89.1-2.65 91.3-2.65L91.3-2.65Q93.15-2.65 94.37-3.63 95.6-4.6 96.32-6.08 97.05-7.55 97.37-9.22 97.7-10.9 97.7-12.35L97.7-12.35Q97.7-13.95 97.35-15.55 97-17.15 96.2-18.53 95.4-19.9 94.12-20.75 92.85-21.6 91-21.6ZM106.99-24.75L111.89-25.3Q112.84-23.05 113.04-20.55L113.04-20.55Q114.34-22.6 116.54-23.95 118.74-25.3 121.24-25.3L121.24-25.3 120.24-20.6Q117.89-20.6 116.19-19.38 114.49-18.15 113.14-16.15L113.14-16.15 113.14 0 108.59 0 108.59-18.05Q108.59-19 108.44-20.28 108.29-21.55 107.94-22.75 107.59-23.95 106.99-24.75L106.99-24.75ZM135.59-25.45L135.59-25.45Q138.69-25.45 140.77-24.18 142.84-22.9 143.89-20.68 144.94-18.45 144.94-15.6L144.94-15.6Q144.94-14.9 144.87-14.15 144.79-13.4 144.64-12.55L144.64-12.55 128.94-12.55Q128.94-8 131.02-5.5 133.09-3 136.49-3L136.49-3Q137.94-3 139.54-3.45 141.14-3.9 142.84-4.85L142.84-4.85 144.39-2.15Q142.69-0.75 140.39-0.05 138.09 0.65 135.89 0.65L135.89 0.65Q131.99 0.65 129.37-1.15 126.74-2.95 125.44-5.9 124.14-8.85 124.14-12.15L124.14-12.15Q124.14-14.7 124.87-17.05 125.59-19.4 127.04-21.33 128.49-23.25 130.62-24.35 132.74-25.45 135.59-25.45ZM135.24-22.1L135.24-22.1Q133.54-22.1 132.27-21.18 130.99-20.25 130.24-18.8 129.49-17.35 129.24-15.85L129.24-15.85 140.19-15.85Q140.29-17.8 139.69-19.2 139.09-20.6 137.97-21.35 136.84-22.1 135.24-22.1ZM150.19-38.15L155.39-38.15 155.39 0 150.84 0 150.84-35.3 150.19-38.15ZM162.74-38.15L167.94-38.15 167.94 0 163.39 0 163.39-35.3 162.74-38.15ZM184.58-25.45L184.58-25.45Q188.53-25.45 190.58-23.33 192.63-21.2 192.63-17.25L192.63-17.25 192.63-5.15Q192.63-4 193.03-3.6 193.43-3.2 194.03-3.2L194.03-3.2Q194.48-3.2 194.98-3.33 195.48-3.45 195.93-3.65L195.93-3.65 196.83-0.8Q195.98-0.3 194.73 0.08 193.48 0.45 192.18 0.45L192.18 0.45Q190.78 0.45 189.73-0.28 188.68-1 188.38-2.95L188.38-2.95Q186.93-1.3 185.01-0.38 183.08 0.55 180.88 0.55L180.88 0.55Q177.93 0.55 175.96-1.18 173.98-2.9 173.98-5.95L173.98-5.95Q173.98-8.8 175.33-10.5 176.68-12.2 178.86-13.08 181.03-13.95 183.48-14.25 185.93-14.55 188.08-14.55L188.08-14.55 188.08-17.35Q188.08-19.4 187.23-20.7 186.38-22 184.03-22L184.03-22Q182.18-22 180.46-21.23 178.73-20.45 177.08-19.05L177.08-19.05 174.93-22.25Q177.03-23.85 179.51-24.65 181.98-25.45 184.58-25.45ZM188.08-9.6L188.08-11.1Q186.78-11.1 185.18-11 183.58-10.9 182.08-10.43 180.58-9.95 179.61-8.95 178.63-7.95 178.63-6.2L178.63-6.2Q178.63-4.65 179.73-3.93 180.83-3.2 182.38-3.2L182.38-3.2Q184.08-3.2 185.36-4.15 186.63-5.1 187.36-6.58 188.08-8.05 188.08-9.6L188.08-9.6Z"
                                  fill="#fe7833" data-fill-palette-color="primary"></path>
                              </g>
                            </svg>
                          </g>
                        </svg>
                      </g>
                      <g transform="matrix(1,0,0,1,163.310208,98.23428195430346)">
                        <svg viewBox="0 0 232.209792 42.52469160033966" height="42.52469160033966" width="232.209792">
                          <g transform="matrix(1,0,0,1,0,0)">
                            <svg width="232.209792" viewBox="4.65 -32.05 176.63 32.349999999999994"
                                 height="42.52469160033966" data-palette-color="#001f3f">
                              <path
                                d="M22.7-3.5L22.95-3.1 22.65 0 4.65 0 4.9-9.65 4.65-32.05 22.7-32.05 22.9-31.65 22.6-28.55 15.05-28.7 8.7-28.6 8.6-18.1 14.6-18 19.9-18.15 20.2-17.8 19.85-14.7 14.25-14.8 8.55-14.75 8.5-10 8.65-3.35 15-3.3 22.7-3.5ZM36.1-15L36.45-14.65 36.45-12.15 24.4-10.4 24-10.8 24-13.3 36.1-15ZM48.9-21.9L44.35-21.85 44.3-13.65 48.6-13.6 53-13.75 53.25-13.4 53-10.55 48.25-10.6 44.25-10.55 44.25-7.8 44.35 0 40.65 0 40.75-7.5 40.65-24.9 55.15-24.9 55.34-24.6 55.05-21.7 48.9-21.9ZM63.99-24.9L63.84-7.8 63.94 0 60.24 0 60.39-7.5 60.24-24.9 63.99-24.9ZM88.04-24.9L88.24-24.6 87.99-21.45 83.34-21.8 80.84-21.8 80.69-7.8 80.84 0 77.09 0 77.24-7.5 77.14-21.8 74.64-21.8 69.89-21.45 69.59-21.8 69.89-24.9 88.04-24.9ZM115.14-25L114.99-7.45 115.04 0 111.04 0 97.94-19 97.69-19 97.64-8.3 97.74 0 94.34 0 94.49-7.35 94.39-24.9 98.34-24.9 111.44-5.9 111.79-5.9 111.69-24.75 115.14-25ZM132.69-3L139.34-3.2 139.63-2.9 139.28 0 124.14 0 124.29-7.5 124.14-24.9 139.38-24.9 139.63-24.6 139.34-21.7 133.03-21.9 127.84-21.85 127.79-14.3 132.74-14.25 137.09-14.4 137.34-14.05 137.03-11.1 132.44-11.25 127.79-11.2 127.73-7.8 127.79-3.05 132.69-3ZM153.23-25.15Q156.28-25.15 159.33-23.95L159.33-23.95 158.68-20.25 158.08-20.1Q156.68-21.2 155.43-21.73 154.18-22.25 152.83-22.25L152.83-22.25Q150.68-22.25 149.43-21.13 148.18-20 148.18-18.55L148.18-18.55Q148.18-17.1 149.41-16.2 150.63-15.3 153.18-14.2L153.18-14.2Q155.43-13.2 156.76-12.4 158.08-11.6 159.06-10.28 160.03-8.95 160.03-7.05L160.03-7.05Q160.03-5.1 158.98-3.43 157.93-1.75 155.91-0.73 153.88 0.3 151.08 0.3L151.08 0.3Q149.33 0.3 147.41-0.13 145.48-0.55 143.83-1.4L143.83-1.4 144.28-5.35 144.78-5.55Q146.18-4.15 148.06-3.38 149.93-2.6 151.53-2.6L151.53-2.6Q153.63-2.6 154.98-3.73 156.33-4.85 156.33-6.45L156.33-6.45Q156.33-7.95 155.11-8.85 153.88-9.75 151.28-10.95L151.28-10.95Q149.13-11.9 147.76-12.7 146.38-13.5 145.43-14.83 144.48-16.15 144.48-18.05L144.48-18.05Q144.48-20.05 145.56-21.65 146.63-23.25 148.61-24.2 150.58-25.15 153.23-25.15L153.23-25.15ZM174.48-25.15Q177.53-25.15 180.58-23.95L180.58-23.95 179.93-20.25 179.33-20.1Q177.93-21.2 176.68-21.73 175.43-22.25 174.08-22.25L174.08-22.25Q171.93-22.25 170.68-21.13 169.43-20 169.43-18.55L169.43-18.55Q169.43-17.1 170.66-16.2 171.88-15.3 174.43-14.2L174.43-14.2Q176.68-13.2 178-12.4 179.33-11.6 180.31-10.28 181.28-8.95 181.28-7.05L181.28-7.05Q181.28-5.1 180.23-3.43 179.18-1.75 177.16-0.73 175.13 0.3 172.33 0.3L172.33 0.3Q170.58 0.3 168.66-0.13 166.73-0.55 165.08-1.4L165.08-1.4 165.53-5.35 166.03-5.55Q167.43-4.15 169.31-3.38 171.18-2.6 172.78-2.6L172.78-2.6Q174.88-2.6 176.23-3.73 177.58-4.85 177.58-6.45L177.58-6.45Q177.58-7.95 176.35-8.85 175.13-9.75 172.53-10.95L172.53-10.95Q170.38-11.9 169-12.7 167.63-13.5 166.68-14.83 165.73-16.15 165.73-18.05L165.73-18.05Q165.73-20.05 166.81-21.65 167.88-23.25 169.85-24.2 171.83-25.15 174.48-25.15L174.48-25.15Z"
                                opacity="1" transform="matrix(1,0,0,1,0,0)" fill="#001f3f" class="slogan-text-1"
                                data-fill-palette-color="secondary" id="text-1"></path>
                            </svg>
                          </g>
                        </svg>
                      </g>
                    </svg>
                  </g>
                </svg>
              </g>
              <g>
                <svg viewBox="0 0 228.36940318128578 228.36940318128578" height="228.36940318128578"
                     width="228.36940318128578">
                  <g>
                    <svg></svg>
                  </g>
                  <g id="icon-0">
                    <svg viewBox="0 0 228.36940318128578 228.36940318128578" height="228.36940318128578"
                         width="228.36940318128578">
                      <g>
                        <path
                          d="M0 114.185c0-63.062 51.122-114.185 114.185-114.185 63.062 0 114.185 51.122 114.184 114.185 0 63.062-51.122 114.185-114.184 114.184-63.062 0-114.185-51.122-114.185-114.184zM114.185 221.202c59.104 0 107.018-47.913 107.017-107.017 0-59.104-47.913-107.018-107.017-107.018-59.104 0-107.018 47.913-107.018 107.018 0 59.104 47.913 107.018 107.018 107.017z"
                          data-fill-palette-color="accent" fill="#fe7833" stroke="transparent"></path>
                      </g>
                      <g transform="matrix(1,0,0,1,74.01612152161056,47.153662490313266)">
                        <svg viewBox="0 0 80.33716013806468 134.06207820065924" height="134.06207820065924"
                             width="80.33716013806468">
                          <g>
                            <svg xmlns="http://www.w3.org/2000/svg" xmlns:xlink="http://www.w3.org/1999/xlink" version="1.1" x="0" y="0" viewBox="23.5955 9.538533827108072 51.17232746763651 85.39346617289193" enable-background="new 0 0 100 100" xml:space="preserve" height="134.06207820065924" width="80.33716013806468" class="icon-cg-0" data-fill-palette-color="accent" id="cg-0"><path d="M26.054 24.179c6.045-12.766 21.3-18.22 34.067-12.175 12.773 6.042 18.225 21.292 12.183 34.066L49.181 94.932 26.054 46.07C22.776 39.143 22.776 31.111 26.054 24.179zM59.723 25.588c0-1.414-1.143-2.561-2.555-2.561-1.414 0-2.558 1.147-2.558 2.561 0 1.409 1.144 2.552 2.558 2.552C58.58 28.141 59.723 26.998 59.723 25.588L59.723 25.588zM34.449 46.847l2.746 2.337L45 40.029c0.65-0.759 0.562-1.894-0.198-2.54-0.759-0.65-1.894-0.557-2.544 0.203L34.449 46.847zM46.452 47.694l-2.236-2.834M58.12 30.85l-4.121-3.451c-1.212-1.013-2.742-1.569-4.324-1.569h-9.239c-0.996 0-1.806 0.81-1.806 1.805v1.806h1.806 7.151c0.143 0 0.282 0.051 0.392 0.144 0.245 0.219 0.27 0.594 0.055 0.844l-2.367 2.716c-0.975 1.114-0.92 2.789 0.126 3.839l3.147 3.168c0.017 0.021 0.033 0.038 0.05 0.059 0.236 0.3 0.186 0.738-0.113 0.975l-4.662 3.674 2.236 2.834 4.88-3.851c1.76-1.384 2.06-3.932 0.676-5.687-0.098-0.123-0.198-0.236-0.309-0.346l-2.367-2.384c-0.262-0.262-0.274-0.679-0.03-0.962l2.713-3.114c0.254-0.291 0.696-0.325 0.992-0.076l3.779 3.164c0.908 0.759 2.189 0.869 3.215 0.278l4.109-2.362c0.864-0.498 1.164-1.599 0.666-2.464l-0.902-1.565-1.561 0.898-3 1.73C58.935 31.17 58.457 31.132 58.12 30.85z" fill="#fe7833" data-fill-palette-color="accent"></path></svg>
                          </g>
                        </svg>
                      </g>
                    </svg>
                  </g>
                </svg>
              </g>
            </svg>
          </g>
          <defs></defs>
        </svg>
        <rect width="395.52" height="136.56327001991437" fill="none" stroke="none" visibility="hidden"></rect>
      </g>
    </svg>
  </g>
</svg>
